<svg xmlns="http://www.w3.org/2000/svg" height="1792" preserveAspectRatio="none" style="display: block;" version="1.1" viewBox="0 0 2432 1792" width="2432">
<path d="M 0 0 L 2432 0 L 2432 1792 L 0 1792 L 0 0 z" fill="rgb(13,17,23)" transform="translate(0,0)"></path>
<path d="M 1574.55 355.937 C 1571.26 327.059 1571.16 304.847 1590.5 280.61 C 1603.52 264.28 1622.56 253.865 1643.34 251.704 C 1665.12 249.284 1686.97 255.694 1704 269.501 C 1732.99 292.74 1736.47 321.812 1730.83 356.247 C 1752.66 365.568 1743.45 398.131 1723.29 401.325 C 1715.42 425.498 1706.3 442.683 1682.87 454.843 L 1681.39 455.596 C 1680.6 522.692 1747.36 514.032 1792.1 543.535 C 1812.83 554.265 1823.98 571.949 1830.49 593.925 C 1840.98 629.293 1846.12 678.265 1844.95 714.82 C 1844.49 745.283 1851.36 777.629 1852.02 808.938 C 1853.27 852.315 1850.89 895.725 1851.96 939.101 C 1852.5 961.08 1861.99 986.425 1856.45 1008.54 C 1854.02 1018.24 1827.75 1050.28 1818.39 1050.78 C 1814.26 1049.19 1815.83 1050.45 1813.3 1047.13 C 1811.56 1032.47 1845.02 1014.84 1821.04 988.375 C 1820.09 997.567 1820.37 1011.56 1815.59 1018.49 C 1812.17 1020.43 1814 1019.99 1809.85 1019.55 C 1807.62 1017.82 1805.59 1015.61 1805.6 1012.65 C 1805.63 999.12 1807.14 975.502 1811.73 963.048 C 1822.09 934.995 1819.04 926.735 1811.24 898.818 C 1804.42 874.404 1796.71 847.676 1791.17 822.719 C 1784.58 790.045 1783.02 755.881 1778.57 722.867 C 1775.83 702.627 1769.49 681.793 1764.87 661.8 L 1764.44 663.159 C 1760.63 675.379 1758.96 688.399 1756.49 700.698 C 1746.79 748.19 1753.2 789.173 1764.37 835.48 C 1774.22 876.339 1786.22 924.05 1786.82 965.876 C 1787.74 1029.65 1778.17 1094.96 1767.85 1157.77 C 1763.95 1181.53 1757.58 1204.85 1754.79 1228.69 C 1752.2 1255.17 1764.34 1281.2 1763.1 1307.46 C 1761.22 1347.19 1748.37 1386.13 1740.7 1425.05 C 1737.79 1440.74 1728.94 1468.77 1736.51 1483.58 C 1744.09 1498.41 1768.27 1510.65 1782.68 1517.52 C 1792.47 1522.19 1816.72 1525.68 1817.75 1538.63 C 1812.82 1555.57 1739.62 1545.24 1725.32 1539.62 C 1713.11 1534.83 1689.85 1540.1 1682.49 1524.78 C 1681.87 1512.85 1688.21 1500.7 1690.39 1488.89 C 1697.4 1450.75 1690.25 1410.03 1682.78 1372.51 C 1678.42 1350.62 1670.92 1330.45 1671.85 1307.87 C 1672.13 1276.95 1687.05 1251.14 1684.58 1220.73 C 1679.33 1156.12 1662.72 1092.25 1655.04 1028.04 C 1653.31 1013.56 1653.6 996.544 1653.81 981.936 L 1650.72 979.244 C 1646.63 987.04 1647.8 1000.59 1647.39 1009.65 C 1646.74 1022.38 1645.53 1035.08 1643.78 1047.71 C 1638.28 1086.74 1629.83 1127.11 1623.8 1166.14 C 1621.05 1183.91 1614.56 1213.23 1614.71 1230.36 C 1615.18 1261.54 1629 1289.86 1624.82 1321.71 C 1619.03 1365.86 1604.16 1408.82 1603.08 1453.7 C 1602.83 1465.72 1604.07 1477.73 1606.78 1489.44 C 1612.38 1513.89 1629.32 1531 1591.29 1536.86 C 1562.92 1541.22 1538.59 1549.38 1509.37 1546.94 C 1500.03 1546.16 1483.28 1548 1477.19 1539.52 C 1476.78 1536 1477.32 1534.38 1480.03 1532.02 C 1487.16 1525.83 1498.72 1523.3 1507.43 1519.88 C 1524.66 1513.11 1551.61 1499.51 1559.74 1482.19 C 1575.41 1448.8 1532.88 1350.06 1534.18 1307.13 C 1534.92 1282.76 1544.08 1259.14 1542.82 1234.67 C 1541.64 1211.73 1537.37 1188.42 1533.98 1165.7 C 1525.05 1105.96 1511.66 1033.12 1512.03 973.799 C 1512.45 906.779 1540.77 844.415 1547.83 778.492 C 1550.28 753.575 1549.37 728.441 1545.12 703.766 C 1542.76 689.762 1541 677.109 1536.04 663.798 C 1530.57 713.757 1524.37 768.334 1513.57 817.334 C 1505 856.227 1489.46 896.908 1480.57 935.731 C 1482.45 942.02 1485.53 949.633 1487.79 955.821 C 1491.71 966.512 1500.21 1010.3 1492.37 1019.04 C 1488.69 1020.4 1490.56 1020.17 1486.53 1019.57 C 1478.65 1013.77 1482.2 1000.55 1480.55 990.781 L 1478.93 990.291 C 1475.77 992.372 1474.39 995.316 1473.11 998.787 C 1465.9 1018.27 1489.92 1034.67 1486.76 1048.25 C 1484.03 1050.58 1485.21 1049.9 1481.19 1050.31 C 1472.18 1046.93 1446.98 1017.07 1445.26 1007.67 C 1441.62 985.247 1449.23 961.644 1449.84 939.35 C 1451.46 880.519 1447.41 821.21 1454.7 762.64 C 1456.77 746.064 1459.85 730.707 1460.1 713.946 C 1459.83 687.356 1467.88 595.141 1478.17 572.906 C 1485.36 557.374 1496.4 547.122 1512.36 541.168 C 1522.83 533.929 1540.3 529.264 1552.45 524.243 C 1590.99 508.318 1628.27 506.527 1625.2 454.769 C 1601.35 441.818 1592.43 426.598 1584.63 401.436 C 1577.36 399.66 1572.61 397.758 1569.16 390.782 C 1563.18 378.704 1563.24 364.054 1574.55 355.937 z" fill="rgb(98,98,136)" transform="translate(0,0)"></path>
<path d="M 1650.46 873.836 C 1656.81 868.812 1661.68 864.989 1668.91 861.411 C 1698.58 846.725 1737.11 856.266 1757.15 882.379 C 1769.08 898.121 1774.17 918.005 1771.27 937.543 C 1768.55 955.946 1758.53 972.478 1743.48 983.405 C 1727.3 995.061 1707.13 999.784 1687.46 996.526 C 1673.43 994.263 1665.38 989.373 1653.81 981.936 L 1650.72 979.244 C 1644.74 981.772 1638.6 987.451 1632.6 990.329 C 1597.15 1007.32 1553.63 992.828 1535.97 958.391 C 1527.17 941.256 1525.58 921.321 1531.53 903.006 C 1537.45 884.999 1550.42 870.163 1567.47 861.897 C 1584.94 853.419 1605.04 852.131 1623.45 858.308 C 1634.71 862.146 1641.1 866.913 1650.46 873.836 z" fill="rgb(95,201,184)" transform="translate(0,0)"></path>
<path d="M 1592.36 859.332 C 1594.1 859.22 1595.84 859.132 1597.59 859.067 C 1620.31 858.259 1634.11 865.571 1650.26 880.565 C 1660.54 870.259 1672.15 862.677 1686.62 859.944 C 1704.7 856.569 1723.38 860.634 1738.43 871.218 C 1753.3 881.498 1763.38 897.364 1766.36 915.197 C 1773.1 956.499 1747.08 986.146 1707.23 992.837 C 1705.35 992.942 1703.47 993.023 1701.58 993.082 C 1679.8 993.729 1665.6 986.736 1650.18 972.133 C 1638.24 982.811 1629.23 989.206 1612.94 992.09 C 1594.59 995.388 1575.68 991.065 1560.59 980.118 C 1545.87 969.703 1536.02 953.752 1533.29 935.927 C 1527.18 896.499 1553.52 864.603 1592.36 859.332 z" fill="rgb(98,98,136)" transform="translate(0,0)"></path>
<path d="M 1621.72 923.489 C 1624.09 922.499 1626.81 922.907 1628.79 924.548 C 1630.76 926.189 1631.66 928.791 1631.12 931.301 C 1630.58 933.811 1628.69 935.812 1626.21 936.495 C 1622.71 937.464 1619.05 935.54 1617.86 932.101 C 1616.67 928.662 1618.36 924.892 1621.72 923.489 z" fill="rgb(95,201,184)" transform="translate(0,0)"></path>
<path d="M 1674.82 923.411 C 1677.2 922.886 1679.67 923.684 1681.3 925.5 C 1682.92 927.316 1683.44 929.868 1682.66 932.175 C 1681.87 934.482 1679.9 936.185 1677.51 936.632 C 1673.89 937.306 1670.39 934.953 1669.66 931.345 C 1668.93 927.736 1671.22 924.205 1674.82 923.411 z" fill="rgb(95,201,184)" transform="translate(0,0)"></path>
<path d="M 1737.54 932.478 C 1738.43 931.914 1739.57 931.938 1740.44 932.537 C 1741.31 933.137 1741.74 934.197 1741.53 935.231 C 1741.31 936.265 1740.51 937.074 1739.47 937.285 C 1738.23 937.539 1736.98 936.867 1736.5 935.688 C 1736.03 934.508 1736.46 933.158 1737.54 932.478 z" fill="rgb(95,201,184)" transform="translate(0,0)"></path>
<path d="M 1560.47 933.489 C 1561.4 932.416 1563.01 932.274 1564.11 933.169 C 1565.2 934.064 1565.39 935.671 1564.52 936.792 C 1563.94 937.543 1563 937.92 1562.06 937.777 C 1561.12 937.633 1560.33 936.991 1560 936.1 C 1559.67 935.209 1559.85 934.209 1560.47 933.489 z" fill="rgb(95,201,184)" transform="translate(0,0)"></path>
<path d="M 1844.95 714.82 C 1843.44 723.215 1841.04 732.343 1834.24 738.09 C 1829.01 742.517 1821.67 744.323 1814.91 743.532 C 1806.34 742.529 1798.28 737.14 1793.24 730.233 C 1785.97 720.262 1746.89 611.761 1742.06 592.693 C 1740.38 586.041 1738.44 577.014 1739.9 570.196 C 1742.07 560.158 1747.71 550.942 1756.76 545.767 C 1768.32 539.16 1779.83 540.393 1792.1 543.535 C 1812.83 554.265 1823.98 571.949 1830.49 593.925 C 1840.98 629.293 1846.12 678.265 1844.95 714.82 z" fill="rgb(95,201,184)" transform="translate(0,0)"></path>
<path d="M 1770.8 545.203 C 1820.16 541.764 1832.87 610.534 1836.68 648.042 C 1838.95 670.403 1846.29 711.715 1833.63 732.082 C 1830.26 737.513 1821.38 739.094 1815.25 739.417 C 1808.04 737.287 1799.27 733.502 1795.86 726.377 C 1788.29 710.558 1782.65 693.339 1776.63 676.819 C 1766.37 648.711 1755.44 620.589 1746.56 592.042 C 1743.24 581.369 1742.27 569.715 1748.55 559.939 C 1754.23 550.911 1760.99 547.633 1770.8 545.203 z" fill="rgb(98,98,136)" transform="translate(0,0)"></path>
<path d="M 1805.79 674.612 C 1808.09 673.223 1810.98 673.28 1813.23 674.759 C 1815.47 676.238 1816.67 678.876 1816.3 681.54 C 1815.93 684.203 1814.06 686.417 1811.5 687.23 C 1808.13 688.3 1804.5 686.68 1803.04 683.461 C 1801.58 680.241 1802.76 676.439 1805.79 674.612 z" fill="rgb(95,201,184)" transform="translate(0,0)"></path>
<path d="M 1798.35 619.56 C 1801.61 617.949 1805.57 619.217 1807.29 622.427 C 1809.01 625.638 1807.88 629.634 1804.73 631.463 C 1802.59 632.702 1799.95 632.679 1797.84 631.401 C 1795.73 630.124 1794.48 627.797 1794.58 625.33 C 1794.69 622.864 1796.13 620.652 1798.35 619.56 z" fill="rgb(95,201,184)" transform="translate(0,0)"></path>
<path d="M 1818.32 712.528 C 1819.48 711.836 1820.98 712.133 1821.78 713.217 C 1822.59 714.3 1822.45 715.818 1821.45 716.731 C 1820.71 717.411 1819.65 717.609 1818.71 717.243 C 1817.77 716.877 1817.13 716.009 1817.04 715.007 C 1816.96 714.005 1817.46 713.044 1818.32 712.528 z" fill="rgb(95,201,184)" transform="translate(0,0)"></path>
<path d="M 1512.36 541.168 C 1524.94 540.524 1536.9 540.963 1546.52 549.959 C 1558.97 561.599 1561.74 577.256 1556.74 593.077 C 1554 601.772 1551.63 610.126 1548.47 618.675 C 1536.3 653.379 1525.35 688.704 1512.04 722.974 C 1507.58 734.435 1498.47 743.946 1485.45 743.526 C 1467.64 743.207 1462.41 729.162 1460.1 713.946 C 1459.83 687.356 1467.88 595.141 1478.17 572.906 C 1485.36 557.374 1496.4 547.122 1512.36 541.168 z" fill="rgb(95,201,184)" transform="translate(0,0)"></path>
<path d="M 1516.67 545.329 C 1526.6 544.848 1535.8 546.423 1543.56 553.201 C 1550.29 559.083 1554.58 568.749 1554.84 577.714 C 1555.24 591.223 1513.69 708.474 1506.47 724.558 C 1504.69 728.528 1502.4 731.391 1499.44 734.505 C 1497.15 735.952 1494.88 737.255 1492.3 738.135 C 1487.44 739.796 1481.94 740.309 1477.31 737.695 C 1471.27 734.286 1467.78 726.992 1466.27 720.499 C 1462.09 702.579 1471.55 616.871 1475.92 595.478 C 1477.82 586.173 1480.38 576.176 1485.44 568.043 C 1493.04 555.849 1502.58 548.542 1516.67 545.329 z" fill="rgb(98,98,136)" transform="translate(0,0)"></path>
<path d="M 1497.47 619.547 C 1499.79 618.496 1502.49 618.807 1504.51 620.355 C 1506.52 621.903 1507.52 624.437 1507.1 626.944 C 1506.68 629.451 1504.92 631.522 1502.51 632.331 C 1499.04 633.496 1495.26 631.737 1493.92 628.33 C 1492.58 624.923 1494.14 621.062 1497.47 619.547 z" fill="rgb(95,201,184)" transform="translate(0,0)"></path>
<path d="M 1490.19 674.601 C 1493.71 673.482 1497.47 675.38 1498.67 678.871 C 1499.86 682.362 1498.04 686.166 1494.57 687.431 C 1492.27 688.274 1489.68 687.802 1487.82 686.199 C 1485.96 684.596 1485.11 682.111 1485.61 679.705 C 1486.1 677.298 1487.85 675.345 1490.19 674.601 z" fill="rgb(95,201,184)" transform="translate(0,0)"></path>
<path d="M 1482.94 711.496 C 1483.82 710.932 1484.94 710.912 1485.84 711.446 C 1486.74 711.979 1487.25 712.974 1487.18 714.015 C 1487.1 715.057 1486.44 715.965 1485.48 716.361 C 1484.16 716.902 1482.65 716.349 1481.99 715.086 C 1481.33 713.823 1481.74 712.267 1482.94 711.496 z" fill="rgb(95,201,184)" transform="translate(0,0)"></path>
<path d="M 700.481 356.003 C 697.366 334.52 696.792 315.771 706.941 295.99 C 716.907 276.373 734.303 261.555 755.256 254.837 C 774.982 248.66 797.355 250.26 815.757 259.876 C 841.222 273.182 860.635 300.642 859.566 330.036 C 859.307 337.132 857.076 349.194 858.292 355.973 C 858.754 358.547 865.746 360.769 867.373 366.837 C 869.517 374.93 868.27 383.547 863.919 390.7 C 859.659 397.817 856.85 399.348 849.239 401.184 C 848.373 404.126 847.419 407.042 846.379 409.927 C 838.825 431.173 827.684 445.628 807.154 455.332 C 806.515 495.924 826.443 507.332 861.891 518.879 C 873.84 522.772 913.658 536.857 924.116 543.617 C 941.512 551.172 952.051 565.81 958.836 582.896 C 969.952 610.885 980.199 691.083 972.812 719.078 C 973.674 734.716 976.18 750.455 977.892 766.034 C 983.424 816.367 982.003 867.715 981.193 918.341 C 980.725 947.619 988.252 974.125 987.707 1002.52 C 987.482 1014.25 961.201 1047.32 949.695 1051.05 C 943.686 1050.13 942.379 1043.56 944.771 1040.45 C 953.938 1028.51 967.779 1010.05 955.14 993.598 L 953.149 993.094 C 947.747 999.434 954.863 1017.59 943.995 1022.27 C 933.221 1019.62 936.122 1002.97 937.234 994.997 C 943.824 947.778 958.14 941.13 940.954 893.215 C 921.867 839.999 915.061 778.995 909.838 723.002 C 908.365 705.993 900.402 684.926 896.799 667.398 C 887.397 693.441 882.811 746.142 885.229 773.644 C 887.802 802.911 898.453 837.539 905.387 866.367 C 913.503 899.725 917.715 933.914 917.938 968.244 C 918.059 1032.61 906.887 1102.41 897.485 1166.29 C 894.323 1187.77 888.175 1210.22 887.012 1231.82 C 885.651 1257.07 895.305 1281.46 895.598 1306.71 C 896.041 1344.87 858.477 1458.49 869.127 1482.97 C 876.277 1499.4 902.432 1511.76 918.487 1518.09 C 925.357 1520.79 932.953 1522.79 939.443 1526.27 C 944.705 1529.1 953.44 1534.37 951.044 1541.32 C 936.846 1553.48 876.629 1545.25 858.453 1539.81 C 846.269 1536.16 828.484 1538.28 818.589 1528.53 C 815.981 1526.13 816.26 1518.36 816.879 1515.27 C 819.764 1502.4 825.233 1488.34 826.332 1475.01 C 829.123 1441.16 822.862 1404.78 816.186 1371.75 C 812.154 1351.8 805.887 1333.56 804.953 1313.85 C 803.941 1292.48 809.674 1275.25 813.892 1254.89 C 815.934 1245.03 817.032 1233.58 818.078 1223.58 C 812.35 1207.2 810.705 1171.98 809.918 1154.5 L 800.109 1082.94 C 794.468 1044.5 788.727 1012.15 788.691 973.249 L 776.874 973.458 C 774.551 1030.17 767.143 1084.45 757.838 1140.51 C 756.433 1148.98 756.426 1157.93 755.113 1166.2 C 754.587 1182.34 753.649 1196.64 750.059 1212.57 C 744.083 1232.44 730.316 1271.32 699.006 1253.63 C 685.639 1246.09 681.249 1227.52 678.46 1213.23 C 678.072 1208.93 677.832 1205.59 677.23 1201.27 C 671.931 1205.54 675.99 1187.29 671.363 1186.08 C 669.958 1179.86 668.719 1168.02 667.815 1161.41 C 665.385 1143.94 663.158 1126.45 661.133 1108.94 C 651.089 1021.94 639.255 941.404 663.316 855.609 C 677.232 805.985 687.294 754.771 676.766 703.578 C 674.711 693.585 673.476 678.928 668.942 669.776 L 668.308 672.754 C 664.698 682.045 658.413 698.512 656.189 708.048 C 646.052 751.519 600.31 761.317 592.022 708.623 C 592.535 671.293 596.167 629.751 605.668 593.458 C 611.062 572.854 620.988 555.152 639.961 544.524 C 663.952 527.478 719.477 518.309 741.337 496.772 C 753.506 484.783 754.979 471.583 754.85 455.434 C 725.063 441.165 723.773 428.639 710.847 401.893 C 705.395 400.053 699.953 398.107 696.745 393.259 C 688.928 381.445 688.249 365.01 700.481 356.003 z" fill="rgb(98,98,136)" transform="translate(0,0)"></path>
<path d="M 639.961 544.524 C 662.358 537.805 689.111 543.712 693.874 569.261 C 699.263 598.172 676.315 640.483 668.942 669.776 L 668.308 672.754 C 664.698 682.045 658.413 698.512 656.189 708.048 C 646.052 751.519 600.31 761.317 592.022 708.623 C 592.535 671.293 596.167 629.751 605.668 593.458 C 611.062 572.854 620.988 555.152 639.961 544.524 z" fill="rgb(95,201,184)" transform="translate(0,0)"></path>
<path d="M 649.505 546.188 C 681.068 543.363 697.511 566.398 688.476 595.367 C 678.6 627.035 667.928 658.569 657.218 689.963 C 652.127 704.885 647.896 725.046 635.821 735.179 C 634.347 735.985 632.826 736.699 631.265 737.32 C 625.595 739.608 618.378 740.4 612.682 737.751 C 605.569 734.444 601.284 727.347 598.976 720.127 C 590.225 692.75 604.953 598.911 618.5 572.674 C 625.337 559.433 635.386 550.795 649.505 546.188 z" fill="rgb(98,98,136)" transform="translate(0,0)"></path>
<path d="M 630.122 616.449 C 632.326 615.251 635.005 615.34 637.125 616.681 C 639.245 618.022 640.473 620.406 640.334 622.911 C 640.196 625.415 638.712 627.649 636.457 628.748 C 633.076 630.397 628.997 629.041 627.274 625.697 C 625.552 622.353 626.816 618.245 630.122 616.449 z" fill="rgb(95,201,184)" transform="translate(0,0)"></path>
<path d="M 623.266 670.479 C 626.549 669.025 630.397 670.379 632.046 673.569 C 633.695 676.76 632.575 680.682 629.49 682.52 C 627.322 683.812 624.617 683.794 622.465 682.475 C 620.314 681.156 619.072 678.753 619.24 676.235 C 619.408 673.717 620.958 671.5 623.266 670.479 z" fill="rgb(95,201,184)" transform="translate(0,0)"></path>
<path d="M 618.843 710.445 C 619.991 709.642 621.568 709.898 622.403 711.022 C 623.238 712.146 623.028 713.73 621.928 714.597 C 621.188 715.18 620.19 715.315 619.322 714.95 C 618.453 714.584 617.853 713.775 617.753 712.838 C 617.654 711.902 618.071 710.985 618.843 710.445 z" fill="rgb(95,201,184)" transform="translate(0,0)"></path>
<path d="M 972.812 719.078 C 968.046 732.979 958.429 746.072 941.954 744.026 C 934.308 743.021 927.387 738.985 922.747 732.825 C 918.942 727.718 915.696 718.785 913.657 712.783 C 900.126 672.934 886.488 633.041 874.857 592.595 C 873.669 588.463 872.519 576.109 873.636 572.238 C 881.585 544.707 898.04 538.431 924.116 543.617 C 941.512 551.172 952.051 565.81 958.836 582.896 C 969.952 610.885 980.199 691.083 972.812 719.078 z" fill="rgb(95,201,184)" transform="translate(0,0)"></path>
<path d="M 902.565 546.169 C 944.275 543.356 959.493 585.909 963.599 619.85 C 967.275 650.245 985.876 729.839 946.151 740.115 C 930.97 738.718 925.013 731.769 920.294 718.008 C 911.747 693.082 903.074 668.14 895.07 643.026 C 889.734 623.84 880.686 604.017 877.985 584.278 C 875.442 565.686 885.558 551.972 902.565 546.169 z" fill="rgb(98,98,136)" transform="translate(0,0)"></path>
<path d="M 934.733 670.521 C 938.286 669.257 942.195 671.091 943.494 674.632 C 944.793 678.173 942.997 682.099 939.469 683.433 C 935.892 684.785 931.898 682.959 930.581 679.369 C 929.264 675.778 931.13 671.803 934.733 670.521 z" fill="rgb(95,201,184)" transform="translate(0,0)"></path>
<path d="M 927.35 617.338 C 930.789 616.193 934.527 617.913 935.894 621.269 C 937.262 624.626 935.791 628.468 932.531 630.053 C 930.223 631.174 927.484 630.918 925.424 629.389 C 923.364 627.861 922.326 625.313 922.73 622.78 C 923.135 620.246 924.916 618.149 927.35 617.338 z" fill="rgb(95,201,184)" transform="translate(0,0)"></path>
<path d="M 677.23 1201.27 C 676.341 1190.39 675.519 1179.49 674.766 1168.6 C 672.99 1140.33 667.754 1061.81 713.012 1061.9 C 756.968 1061.98 755.093 1134.95 755.113 1166.2 C 754.587 1182.34 753.649 1196.64 750.059 1212.57 C 744.083 1232.44 730.316 1271.32 699.006 1253.63 C 685.639 1246.09 681.249 1227.52 678.46 1213.23 C 678.072 1208.93 677.832 1205.59 677.23 1201.27 z" fill="rgb(95,201,184)" transform="translate(0,0)"></path>
<path d="M 710.682 1066.22 C 765.479 1067.31 752.023 1192.88 741.092 1225.91 C 736.906 1238.56 730.691 1247.18 718.5 1252.79 C 697.165 1255.05 685.831 1236.77 684.323 1218.54 C 681.387 1183.06 661.758 1076.12 710.682 1066.22 z" fill="rgb(98,98,136)" transform="translate(0,0)"></path>
<path d="M 709.978 1182.46 C 712.297 1181.2 715.125 1181.36 717.286 1182.87 C 719.446 1184.38 720.571 1186.98 720.191 1189.59 C 719.811 1192.2 717.992 1194.37 715.491 1195.2 C 712.061 1196.34 708.328 1194.67 706.894 1191.36 C 705.459 1188.04 706.798 1184.17 709.978 1182.46 z" fill="rgb(95,201,184)" transform="translate(0,0)"></path>
<path d="M 710.024 1143.57 C 713.303 1141.73 717.455 1142.9 719.291 1146.18 C 721.127 1149.47 719.951 1153.62 716.666 1155.45 C 713.388 1157.27 709.25 1156.1 707.417 1152.83 C 705.585 1149.55 706.752 1145.41 710.024 1143.57 z" fill="rgb(95,201,184)" transform="translate(0,0)"></path>
<path d="M 711.891 1223.44 C 712.823 1222.95 713.956 1223.03 714.804 1223.66 C 715.651 1224.29 716.062 1225.35 715.859 1226.39 C 715.656 1227.42 714.875 1228.25 713.853 1228.51 C 712.511 1228.85 711.124 1228.14 710.623 1226.85 C 710.123 1225.56 710.667 1224.09 711.891 1223.44 z" fill="rgb(95,201,184)" transform="translate(0,0)"></path>
<path d="M 713.178 1099.53 C 714.272 1098.9 715.665 1099.21 716.391 1100.25 C 717.118 1101.28 716.938 1102.69 715.976 1103.51 C 715.271 1104.11 714.288 1104.26 713.437 1103.9 C 712.585 1103.53 712.013 1102.72 711.958 1101.8 C 711.903 1100.87 712.375 1100 713.178 1099.53 z" fill="rgb(95,201,184)" transform="translate(0,0)"></path>
<path d="M 809.918 1154.5 C 809.577 1124.33 807.429 1065.29 851.801 1061.9 C 859.418 1061.32 867.524 1065.42 872.611 1070.54 C 891.317 1088.04 890.501 1132.49 889.574 1155.51 C 888.519 1181.71 889.479 1230.52 870.474 1248.94 C 847.311 1271.4 824.3 1246.87 818.078 1223.58 C 812.35 1207.2 810.705 1171.98 809.918 1154.5 z" fill="rgb(95,201,184)" transform="translate(0,0)"></path>
<path d="M 848.767 1066.19 C 892.031 1067.5 885.506 1136.01 884.55 1165.43 C 883.633 1193.65 885.368 1245.38 851.627 1253.29 C 832.532 1249.94 823.663 1234.53 821.017 1216.39 C 815.623 1179.41 798.481 1077.28 848.767 1066.19 z" fill="rgb(98,98,136)" transform="translate(0,0)"></path>
<path d="M 846.703 1182.43 C 850.072 1180.88 854.057 1182.34 855.637 1185.69 C 857.216 1189.04 855.802 1193.04 852.465 1194.66 C 850.276 1195.72 847.686 1195.52 845.684 1194.14 C 843.681 1192.76 842.574 1190.41 842.785 1187.99 C 842.996 1185.56 844.492 1183.44 846.703 1182.43 z" fill="rgb(95,201,184)" transform="translate(0,0)"></path>
<path d="M 846.075 1143.6 C 848.198 1142.29 850.871 1142.26 853.02 1143.53 C 855.17 1144.79 856.444 1147.14 856.332 1149.63 C 856.22 1152.13 854.739 1154.35 852.485 1155.42 C 849.254 1156.94 845.393 1155.68 843.689 1152.54 C 841.985 1149.4 843.033 1145.47 846.075 1143.6 z" fill="rgb(95,201,184)" transform="translate(0,0)"></path>
<path d="M 848.362 1223.52 C 849.064 1222.83 850.095 1222.59 851.028 1222.9 C 851.962 1223.21 852.641 1224.02 852.786 1225 C 852.931 1225.97 852.517 1226.94 851.714 1227.52 C 850.602 1228.31 849.069 1228.11 848.192 1227.06 C 847.315 1226.02 847.39 1224.47 848.362 1223.52 z" fill="rgb(95,201,184)" transform="translate(0,0)"></path>
<path d="M 772.39 763.391 C 797.533 760.437 836.446 768.222 855.217 784.823 C 913.777 836.613 852.52 884.897 797.911 891.008 C 797.084 891.139 796.254 891.255 795.422 891.357 C 770.524 894.37 730.009 886.521 711.754 869.422 C 653.491 814.848 717.488 768.6 772.39 763.391 z" fill="rgb(95,201,184)" transform="translate(0,0)"></path>
<path d="M 779.402 767.425 C 814.948 766.217 870.672 782.406 873.717 823.749 C 876.931 867.404 821.561 885.338 788.247 887.418 C 758.361 889.735 708.29 874.719 697.376 844.658 C 678.304 792.132 741.219 769.6 779.402 767.425 z" fill="rgb(98,98,136)" transform="translate(0,0)"></path>
<path d="M 737.115 823.525 C 740.615 822.635 744.199 824.641 745.268 828.09 C 746.338 831.539 744.519 835.222 741.13 836.468 C 738.777 837.334 736.137 836.831 734.267 835.16 C 732.397 833.489 731.601 830.923 732.198 828.487 C 732.794 826.051 734.685 824.143 737.115 823.525 z" fill="rgb(95,201,184)" transform="translate(0,0)"></path>
<path d="M 829.231 823.53 C 831.33 822.343 833.907 822.383 835.969 823.634 C 838.031 824.885 839.256 827.152 839.173 829.562 C 839.09 831.973 837.712 834.15 835.568 835.256 C 832.341 836.922 828.374 835.697 826.648 832.502 C 824.921 829.307 826.069 825.318 829.231 823.53 z" fill="rgb(95,201,184)" transform="translate(0,0)"></path>
<path d="M 783.781 797.429 C 785.097 797.039 786.488 797.751 786.94 799.047 C 787.393 800.343 786.749 801.766 785.476 802.281 C 784.597 802.637 783.592 802.48 782.864 801.872 C 782.135 801.264 781.8 800.305 781.991 799.375 C 782.183 798.446 782.871 797.698 783.781 797.429 z" fill="rgb(95,201,184)" transform="translate(0,0)"></path>
<path d="M 678.46 1213.23 C 681.249 1227.52 685.639 1246.09 699.006 1253.63 C 730.316 1271.32 744.083 1232.44 750.059 1212.57 C 746.39 1251.57 759.57 1277.49 758.18 1315.42 C 757.628 1330.49 753.015 1346.44 750.165 1361.23 C 741.939 1402.57 729.557 1446.72 739.921 1488.73 C 741.1 1497 752.277 1522.51 745.014 1528.84 C 735.563 1537.07 714.279 1537.03 703.039 1540.25 C 677.772 1547.51 653.645 1548.2 627.653 1546.25 C 621.642 1545.8 615.859 1544.79 611.789 1539.91 C 611.134 1537.49 610.785 1536.46 612.243 1534.26 C 620.816 1521.34 680.357 1510.4 692.302 1484.21 C 697.619 1472.55 696.483 1457.89 694.86 1445.57 C 689.387 1404 671.731 1360.61 668.777 1319.56 C 666.527 1288.31 676.047 1258.51 675.915 1227.29 C 676.172 1225.18 676.699 1213.06 676.562 1213.5 L 676.73 1213.5 C 677.483 1214.19 676.673 1215.59 677.527 1216.23 C 678.253 1215.59 678.304 1214.05 678.46 1213.23 z" fill="rgb(98,98,136)" transform="translate(0,0)"></path>
<path d="M 668.308 672.754 C 665.008 698.841 660.505 725.603 657.812 751.566 C 651.715 810.343 634.746 865.364 617.765 921.635 C 616.295 926.508 614.96 932.465 614.267 937.555 C 616.952 944.729 622.623 958.12 624.152 964.972 C 626.26 974.421 634.04 1018.15 624.088 1021.98 C 611.782 1018.48 617.374 1000.85 613.652 991.321 C 601.95 992.048 606.184 1022.69 613.599 1029.53 C 617.323 1032.97 622.164 1044.75 619.672 1050.1 C 617.768 1050.96 616.127 1051.96 613.926 1050.91 C 604.538 1045.16 582.408 1018.1 579.983 1008.73 C 574.889 989.062 584.603 960.129 584.546 940.434 C 584.352 874.461 577.87 809.098 587.686 743.48 C 589.379 732.163 589.954 719.848 592.022 708.623 C 600.31 761.317 646.052 751.519 656.189 708.048 C 658.413 698.512 664.698 682.045 668.308 672.754 z" fill="rgb(98,98,136)" transform="translate(0,0)"></path>
<path d="M 2114.21 725.957 C 2127.23 725.728 2130 724.993 2135.62 736.908 C 2135.13 738.618 2134.81 740.163 2134.44 741.888 C 2126.69 750.546 2126 748.994 2114.09 748.997 L 2114.21 725.957 z" fill="rgb(232,237,242)" transform="translate(0,0)"></path>
<path d="M 2120.25 731.415 C 2128.87 732.145 2128.82 734.049 2127.59 742.29 C 2117.53 744.388 2120.27 741.338 2120.25 731.415 z" fill="rgb(13,17,23)" transform="translate(0,0)"></path>
<path d="M 417.347 725.886 C 422.017 725.882 429.14 725.09 432.911 728.205 C 439.363 733.532 438.498 740.422 434.026 746.529 C 427.118 749.681 424.979 748.951 417.31 748.904 L 417.347 725.886 z" fill="rgb(232,237,242)" transform="translate(0,0)"></path>
<path d="M 423.72 730.544 C 431.624 733.034 431.409 734.401 430.564 742.432 C 420.715 744.559 423.545 740.333 423.72 730.544 z" fill="rgb(13,17,23)" transform="translate(0,0)"></path>
<path d="M 551.942 1168.53 C 547.642 1163.56 541.792 1155.06 555.492 1152.95 C 556.331 1153.11 557.17 1153.27 558.009 1153.43 C 561.162 1153.87 565.659 1151.13 565.117 1156.48 C 564.529 1162.28 566.604 1168.7 563.224 1173.21 C 559.637 1177.99 544.499 1174.61 549.679 1170.06 C 549.581 1170.15 551.686 1169.62 551.51 1169.66 L 551.942 1168.53 z" fill="rgb(232,237,242)" transform="translate(0,0)"></path>
<path d="M 551.942 1168.53 C 555.32 1168.01 559.397 1165.79 559.418 1169.9 C 556.381 1172.24 554.679 1171.07 551.51 1169.66 L 551.942 1168.53 z" fill="rgb(27,39,64)" transform="translate(0,0)"></path>
<path d="M 554.911 1157.49 C 555.971 1157.01 557.206 1157.14 558.142 1157.83 C 559.078 1158.52 559.568 1159.66 559.424 1160.82 C 559.28 1161.97 558.524 1162.96 557.447 1163.4 C 555.824 1164.06 553.969 1163.3 553.277 1161.69 C 552.585 1160.07 553.312 1158.21 554.911 1157.49 z" fill="rgb(13,17,23)" transform="translate(0,0)"></path>
<path d="M 990.381 1158.29 C 989.633 1160.79 989.061 1163.26 987.208 1165.2 C 985.136 1167.37 982.041 1168.84 979.016 1168.86 C 975.227 1168.89 971.456 1167.33 968.917 1164.53 C 964.501 1159.64 965.299 1151.2 970.617 1147.29 C 973.774 1144.97 977.691 1144.49 981.488 1145.2 C 983.93 1145.65 986.318 1147.11 987.726 1149.21 C 988.5 1150.4 986.454 1152.03 985.492 1152.23 C 984.58 1152.42 983.335 1152.29 982.614 1151.75 C 980.143 1149.89 976.559 1150.05 974.443 1152.37 C 973.193 1153.81 973.081 1156.09 973.167 1157.96 C 973.533 1161.84 976.908 1163.73 980.56 1163.04 C 982.625 1162.65 983.993 1160.24 981.102 1159.79 C 979.178 1159.49 979.297 1160.03 978.357 1158.15 C 980.045 1154.23 986.87 1155.84 990.64 1156.07 L 990.381 1158.29 z" fill="rgb(232,237,242)" transform="translate(0,0)"></path>
<path d="M 1428.93 1168.04 C 1426.84 1165.59 1424.26 1163.48 1424.98 1159.47 C 1426.69 1149.97 1433.75 1154.68 1439.02 1153.1 C 1446.45 1150.87 1445.17 1178.12 1435 1175.83 C 1428.15 1174.28 1428.66 1176.14 1424.72 1169.91 C 1428.6 1170.09 1436.14 1172.59 1437.1 1169.42 C 1438.02 1166.41 1430.51 1168.02 1428.93 1168.04 z" fill="rgb(232,237,242)" transform="translate(0,0)"></path>
<path d="M 1433.06 1157.48 C 1434.16 1157.01 1435.41 1157.16 1436.36 1157.89 C 1437.3 1158.61 1437.78 1159.79 1437.6 1160.96 C 1437.43 1162.14 1436.64 1163.13 1435.53 1163.55 C 1433.86 1164.18 1432 1163.37 1431.33 1161.72 C 1430.65 1160.07 1431.43 1158.18 1433.06 1157.48 z" fill="rgb(13,17,23)" transform="translate(0,0)"></path>
<path d="M 1854.82 1144.98 C 1856.57 1145.02 1871.87 1146.09 1866.48 1151.93 C 1864.79 1153.75 1859.55 1149.69 1857.35 1150.52 C 1849.69 1153.42 1850.85 1165.89 1861.55 1162.92 L 1861.37 1162.94 L 1862.63 1162.4 L 1862.49 1161.58 L 1862.55 1161.46 C 1862.2 1160.81 1861.61 1160.33 1860.91 1160.12 C 1858.1 1159.25 1856.83 1157.45 1859.98 1155.74 C 1861.91 1155.79 1869.52 1155.59 1869.61 1156.62 C 1870.63 1168.23 1859.88 1169.64 1853.97 1168.07 C 1851.12 1167.32 1848.71 1165.4 1847.36 1162.78 C 1843.26 1154.81 1847.92 1148.79 1854.82 1144.98 z" fill="rgb(232,237,242)" transform="translate(0,0)"></path>
<path d="M 2019.06 725.817 C 2020.09 725.817 2026.39 725.47 2026.71 726.294 C 2028.25 732.043 2033.39 741.978 2033.92 747.503 C 2034.39 752.365 2026.79 747.184 2025.22 745.615 C 2015.44 741.948 2020.97 751.101 2012.98 749.022 C 2009.58 748.139 2017.95 729.086 2019.06 725.817 z" fill="rgb(232,237,242)" transform="translate(0,0)"></path>
<path d="M 2022.26 733.65 C 2025.3 736.346 2025.17 738.711 2023.96 742.195 C 2018.72 739.624 2020.28 739.505 2022.26 733.65 z" fill="rgb(13,17,23)" transform="translate(0,0)"></path>
<path d="M 322.052 726.049 C 335.712 726.23 328.44 728.345 335.023 741.021 C 336.041 742.981 339.267 749.467 334.51 749.258 C 332.855 749.187 331.285 748.504 330.105 747.341 C 329.467 746.711 328.902 746.168 328.243 745.554 C 318.658 743.242 323.91 748.997 317.328 749.502 C 313.387 749.804 315.606 744.137 316.34 742.095 L 322.052 726.049 z" fill="rgb(232,237,242)" transform="translate(0,0)"></path>
<path d="M 325.517 733.81 C 327.375 735.744 329.262 738.472 326.197 739.875 C 321.233 741.119 324.061 737.77 325.517 733.81 z" fill="rgb(13,17,23)" transform="translate(0,0)"></path>
<path d="M 1907.06 596.671 C 1909.19 596.71 1914.28 595.816 1914.96 598.435 C 1915.16 602.506 1922.79 616.433 1921.89 619.288 C 1920.82 622.665 1914.42 617.848 1912.98 616.085 C 1903.36 615.212 1907.87 617.748 1904.89 619.413 C 1892.64 626.275 1906.27 598.964 1907.06 596.671 z" fill="rgb(232,237,242)" transform="translate(0,0)"></path>
<path d="M 1910.03 604.573 C 1911.79 607.657 1913.11 609.119 1911.78 612.434 C 1906.46 610.481 1908.21 609.893 1910.03 604.573 z" fill="rgb(13,17,23)" transform="translate(0,0)"></path>
<path d="M 422.565 616.801 C 419.256 618.549 417.859 620.813 413.551 619.652 C 410.484 618.825 408.751 620.286 405.48 619.551 C 404.028 616.791 404.877 600.122 405.209 596.222 C 405.246 595.784 406.701 595.588 406.993 595.531 C 413.777 594.22 409.37 602.916 411.352 604.704 C 417.962 606.23 416.441 600.957 423.521 609.454 L 424.549 609.342 C 424.874 611.736 425.167 613.86 425.605 616.253 L 422.565 616.801 z" fill="rgb(232,237,242)" transform="translate(0,0)"></path>
<path d="M 423.521 609.454 L 424.549 609.342 C 424.874 611.736 425.167 613.86 425.605 616.253 L 422.565 616.801 L 423.521 609.454 z" fill="rgb(27,39,64)" transform="translate(0,0)"></path>
<path d="M 411.621 609.554 C 412.489 608.685 413.763 608.361 414.941 608.71 C 416.119 609.058 417.011 610.023 417.267 611.224 C 417.523 612.425 417.101 613.67 416.168 614.468 C 414.8 615.637 412.754 615.517 411.532 614.197 C 410.311 612.876 410.35 610.827 411.621 609.554 z" fill="rgb(13,17,23)" transform="translate(0,0)"></path>
<path d="M 1924.45 594.701 C 1937.26 596.434 1927.35 601.707 1931.01 604.022 C 1932.86 605.191 1947.87 601.047 1941.01 618.575 C 1939.53 619.041 1934.86 620.644 1933.57 619.668 C 1932.37 618.071 1925.31 621.303 1924.96 619.382 C 1923.83 613.025 1924.46 601.097 1924.45 594.701 z" fill="rgb(232,237,242)" transform="translate(0,0)"></path>
<path d="M 1933.42 608.58 C 1935.04 608.506 1936.46 609.653 1936.73 611.25 C 1936.99 612.847 1936.03 614.393 1934.47 614.85 C 1933.29 615.199 1932 614.835 1931.18 613.913 C 1930.36 612.991 1930.14 611.677 1930.62 610.537 C 1931.09 609.397 1932.19 608.635 1933.42 608.58 z" fill="rgb(13,17,23)" transform="translate(0,0)"></path>
<path d="M 1904.46 725.292 C 1904.7 725.328 1910.21 725.91 1910.4 726.303 C 1912.18 729.901 1910.41 735.984 1911.15 740.04 C 1911.53 742.168 1913.49 744.255 1915.67 743.527 C 1921.8 742.216 1917.02 728.816 1919.33 726.399 C 1921.63 723.991 1925.01 725.461 1924.98 729.75 C 1925 737.754 1927.16 756.281 1906.97 747.052 C 1903.32 745.387 1904.43 730.025 1904.46 725.292 z" fill="rgb(232,237,242)" transform="translate(0,0)"></path>
<path d="M 387.209 596.581 C 396.463 597.02 393.867 596.438 397.629 606.47 C 398.36 608.422 402.463 617.695 402.574 618.611 C 399.776 621.945 395.445 618.297 393.361 616.302 C 384.103 614.229 384.907 623.201 379.65 619.593 C 379.068 617.598 386.071 599.979 387.209 596.581 z" fill="rgb(232,237,242)" transform="translate(0,0)"></path>
<path d="M 390.179 604.651 C 392.797 607.877 393.299 609.154 391.77 612.869 C 386.772 610.305 388.266 610.314 390.179 604.651 z" fill="rgb(13,17,23)" transform="translate(0,0)"></path>
<path d="M 424.549 609.342 C 426.965 606.791 428.685 604.467 432.498 604.192 C 434.746 604.029 436.924 605.759 437.146 603.039 C 437.114 603.435 435.377 590.453 442.747 596.613 C 443.64 597.358 442.97 604.778 443.153 606 C 443.095 609.655 443.39 615.013 442.789 618.475 C 442.327 621.142 436.466 618.856 434.017 619.713 C 430.926 620.795 427.844 618.216 425.605 616.253 C 425.167 613.86 424.874 611.736 424.549 609.342 z" fill="rgb(232,237,242)" transform="translate(0,0)"></path>
<path d="M 431.887 609.491 C 432.769 608.682 434.024 608.424 435.153 608.819 C 436.283 609.215 437.103 610.2 437.287 611.382 C 437.472 612.564 436.991 613.752 436.036 614.473 C 434.653 615.516 432.696 615.29 431.587 613.959 C 430.479 612.628 430.611 610.662 431.887 609.491 z" fill="rgb(13,17,23)" transform="translate(0,0)"></path>
<path d="M 2051.26 733.829 C 2055.53 733.72 2056.78 735.083 2060.5 733.821 C 2064.58 732.311 2065.62 736.405 2069.56 734.08 C 2078.39 728.88 2079.23 746.68 2077.52 747.784 C 2067.71 754.1 2074.59 737.54 2070 738.135 C 2064.63 738.832 2069.79 747.924 2065.57 749 C 2062.86 749.421 2061.61 748.87 2061.69 746.012 C 2062.13 743.535 2062.08 734.173 2057.39 739.301 C 2056.28 740.523 2058.21 747.998 2056.06 748.798 C 2048.91 751.462 2051.15 741.177 2051.14 738.928 L 2049.26 738.065 C 2049.08 736.527 2048.87 734.894 2048.79 733.363 L 2051.26 733.829 z" fill="rgb(232,237,242)" transform="translate(0,0)"></path>
<path d="M 2048.79 733.363 L 2051.26 733.829 L 2051.14 738.928 L 2049.26 738.065 C 2049.08 736.527 2048.87 734.894 2048.79 733.363 z" fill="rgb(27,39,64)" transform="translate(0,0)"></path>
<path d="M 522.349 724.415 C 523.405 724.521 528.095 724.323 528.111 725.95 C 528.197 733.098 528.875 741.522 527.678 748.47 C 527.697 748.357 517.398 749.313 516.303 749.501 C 511.998 746.843 507.968 743.433 511.005 737.538 C 513.952 731.82 518.45 734.507 521.672 733.816 C 522.777 732.491 522.342 726.399 522.349 724.415 z" fill="rgb(232,237,242)" transform="translate(0,0)"></path>
<path d="M 517.629 738.504 C 518.665 737.862 519.976 737.863 521.012 738.506 C 522.049 739.149 522.631 740.324 522.515 741.538 C 522.4 742.752 521.607 743.796 520.468 744.232 C 518.921 744.825 517.178 744.144 516.442 742.66 C 515.706 741.176 516.22 739.376 517.629 738.504 z" fill="rgb(13,17,23)" transform="translate(0,0)"></path>
<path d="M 2219.09 724.163 C 2219.68 724.25 2224.28 724.634 2224.42 725.223 C 2225.9 731.718 2224.31 739.739 2224.9 746.525 C 2225.2 749.917 2217.01 748.674 2212.63 749.646 C 2209.28 747.367 2206.3 745.4 2206.94 741.003 C 2208.38 731.148 2215.98 734.321 2218.63 733.704 C 2219.29 732.536 2219.07 725.996 2219.09 724.163 z" fill="rgb(232,237,242)" transform="translate(0,0)"></path>
<path d="M 2214.17 738.51 C 2215.17 737.85 2216.46 737.797 2217.51 738.373 C 2218.56 738.95 2219.21 740.061 2219.2 741.261 C 2219.18 742.461 2218.5 743.553 2217.43 744.1 C 2215.9 744.883 2214.02 744.333 2213.16 742.847 C 2212.29 741.361 2212.74 739.457 2214.17 738.51 z" fill="rgb(13,17,23)" transform="translate(0,0)"></path>
<path d="M 1956.78 594.986 C 1958.36 595.263 1962.96 595.2 1962.76 597.44 C 1962.46 600.85 1963.66 617.548 1962.05 619.507 C 1962.42 619.358 1952.82 619.994 1950.67 620.434 L 1950.17 620.106 C 1945.64 617.167 1943.38 613.599 1946.08 607.981 C 1948.86 602.226 1954.19 605.161 1956.47 604.516 C 1957 603.701 1956.78 596.535 1956.78 594.986 z" fill="rgb(232,237,242)" transform="translate(0,0)"></path>
<path d="M 1953.44 608.733 C 1955.04 608.471 1956.59 609.418 1957.09 610.959 C 1957.58 612.501 1956.88 614.173 1955.43 614.893 C 1954.28 615.465 1952.9 615.309 1951.9 614.494 C 1950.91 613.679 1950.48 612.357 1950.81 611.115 C 1951.15 609.873 1952.18 608.941 1953.44 608.733 z" fill="rgb(13,17,23)" transform="translate(0,0)"></path>
<path d="M 352.859 733.108 L 354.663 733.529 C 358.509 733.845 363.081 734.53 367.5 733.976 C 368.036 734.295 368.572 734.613 369.108 734.931 C 372.439 736.291 372.135 732.879 376.995 733.735 C 381.433 734.517 381.882 744.385 380.646 747.417 C 380.371 748.092 379.8 748.603 379.099 748.803 C 371.999 750.78 376.82 739.653 374.36 738.597 C 367.519 735.661 372.395 746.214 368.778 749.203 C 360.916 750.262 368.876 733.847 360.413 739.128 C 357.037 741.235 366.065 747.707 354.158 749.385 C 353.354 744.363 354.942 740.657 351.483 737.697 C 352.108 735.974 352.413 734.852 352.859 733.108 z" fill="rgb(232,237,242)" transform="translate(0,0)"></path>
<path d="M 352.859 733.108 L 354.663 733.529 C 354.719 739.551 354.796 743.395 354.158 749.385 C 353.354 744.363 354.942 740.657 351.483 737.697 C 352.108 735.974 352.413 734.852 352.859 733.108 z" fill="rgb(27,39,64)" transform="translate(0,0)"></path>
<path d="M 207.883 725.626 C 208.406 725.694 212.915 726.026 213.183 726.51 C 215.156 730.215 213.046 736.709 214.102 740.968 C 214.646 743.159 216.836 744.41 218.815 743.617 C 224.356 741.803 220.095 729.823 221.965 727.013 C 222.928 725.566 227.517 724.159 228.044 728.75 C 228.014 732.803 229.134 742.572 225.603 746.347 C 221.832 750.379 212.548 750.628 209.407 745.65 C 206.907 741.691 207.878 730.819 207.883 725.626 z" fill="rgb(232,237,242)" transform="translate(0,0)"></path>
<path d="M 1939.06 733.675 C 1949.12 732.812 1950.07 750.666 1937.98 748.818 C 1935.5 748.438 1934.91 747.909 1934.12 750.605 L 1933.3 753.434 C 1934.53 758.439 1928.57 755.985 1928.54 754.686 C 1928.36 748.149 1927.88 740.889 1928.62 734.431 C 1928.66 734.054 1931.56 733.537 1931.98 733.803 C 1934.46 734.859 1936.84 734.13 1939.06 733.675 z" fill="rgb(232,237,242)" transform="translate(0,0)"></path>
<path d="M 1935.59 738.58 C 1936.64 737.875 1938.01 737.825 1939.12 738.45 C 1940.22 739.076 1940.89 740.271 1940.83 741.542 C 1940.77 742.812 1940.01 743.943 1938.85 744.467 C 1937.25 745.191 1935.36 744.564 1934.5 743.027 C 1933.65 741.489 1934.12 739.555 1935.59 738.58 z" fill="rgb(13,17,23)" transform="translate(0,0)"></path>
<path d="M 1967.74 742.99 C 1965.71 746.871 1963.09 750.396 1958.53 748.939 C 1950.96 745.903 1959.6 758.527 1950.81 756.116 C 1948.74 755.548 1949.9 737.126 1949.86 735.031 C 1949.8 731.998 1955.39 734.936 1957.04 734.307 C 1961.52 732.587 1964.43 733.355 1967 737.409 L 1967.97 738.862 C 1968.16 739.394 1968.12 739.545 1968.48 739.774 C 1968.73 739.73 1968.99 739.686 1969.24 739.641 C 1969.58 741.246 1969.46 741.159 1969.25 743.002 C 1968.97 742.76 1968.7 742.518 1968.43 742.275 C 1968.04 742.563 1968.27 742.355 1967.74 742.99 z" fill="rgb(232,237,242)" transform="translate(0,0)"></path>
<path d="M 1967.97 738.862 C 1968.16 739.394 1968.12 739.545 1968.48 739.774 C 1968.73 739.73 1968.99 739.686 1969.24 739.641 C 1969.58 741.246 1969.46 741.159 1969.25 743.002 C 1968.97 742.76 1968.7 742.518 1968.43 742.275 C 1968.04 742.563 1968.27 742.355 1967.74 742.99 C 1967.44 740.786 1967.39 740.914 1967.97 738.862 z" fill="rgb(98,98,136)" transform="translate(0,0)"></path>
<path d="M 1956.63 738.512 C 1957.7 737.865 1959.04 737.866 1960.12 738.515 C 1961.19 739.164 1961.81 740.354 1961.74 741.606 C 1961.66 742.857 1960.9 743.963 1959.76 744.479 C 1958.13 745.213 1956.21 744.552 1955.38 742.97 C 1954.55 741.388 1955.1 739.434 1956.63 738.512 z" fill="rgb(13,17,23)" transform="translate(0,0)"></path>
<path d="M 231.659 733.55 C 234.378 733.803 237.327 734.585 240.007 734.103 C 250.711 732.177 253.275 742.999 244.73 749.417 C 242.505 749.149 240.587 748.779 238.456 748.488 C 236.466 749.917 238.334 753.412 237.163 755.448 C 236.323 756.908 232.371 756.45 232.194 755.734 C 230.885 750.447 231.635 739.264 231.659 733.55 z" fill="rgb(232,237,242)" transform="translate(0,0)"></path>
<path d="M 239.147 738.535 C 240.207 738.016 241.464 738.112 242.432 738.785 C 243.401 739.459 243.929 740.604 243.811 741.778 C 243.693 742.951 242.949 743.969 241.866 744.437 C 240.246 745.137 238.364 744.416 237.626 742.814 C 236.887 741.211 237.563 739.312 239.147 738.535 z" fill="rgb(13,17,23)" transform="translate(0,0)"></path>
<path d="M 466.719 607.041 C 468.439 603.321 470.097 604.179 473.276 605.688 C 474.752 606.389 478.053 603.071 480.648 604.645 C 482.679 605.878 484.459 605.801 486.494 604.72 C 489.139 603.642 492.641 605.065 493.321 607.976 C 494.233 610.422 493.301 614.202 493.755 616.495 C 494.274 619.121 492.076 620.614 489.837 620.206 C 485.688 619.451 490.053 610.344 486.431 609.07 C 484.472 608.381 483.288 610.33 483.213 611.998 C 482.962 613.954 483.832 617.519 482.711 619.287 C 481.055 620.777 478.778 620.934 477.941 618.459 C 476.912 615.419 479.103 611.295 476.671 609.352 C 475.666 608.647 473.991 609.384 473.445 610.612 C 472.332 613.116 474.487 617.915 472.06 619.703 C 470.633 620.473 468.072 619.69 466.654 619.204 C 467.486 613.357 467.531 612.865 466.719 607.041 z" fill="rgb(232,237,242)" transform="translate(0,0)"></path>
<path d="M 252.897 733.373 C 259.763 734.149 257.929 734.374 264.521 733.692 C 271.138 733.007 273.018 745.585 266.71 748.212 C 266.482 748.307 264.977 749.264 264.634 749.472 C 263.937 749.373 258.991 748.37 258.811 748.512 C 257.219 749.86 259.147 754.079 257.78 755.368 C 256.062 756.986 252.61 756.188 252.605 753.52 C 252.585 746.803 252.683 740.087 252.897 733.373 z" fill="rgb(232,237,242)" transform="translate(0,0)"></path>
<path d="M 259.889 738.51 C 260.987 737.948 262.306 738.047 263.307 738.767 C 264.309 739.486 264.824 740.705 264.641 741.924 C 264.459 743.144 263.611 744.159 262.443 744.554 C 260.81 745.107 259.028 744.306 258.357 742.719 C 257.687 741.131 258.355 739.295 259.889 738.51 z" fill="rgb(13,17,23)" transform="translate(0,0)"></path>
<path d="M 1998.25 604.677 C 2001.84 604.24 2000.85 607.506 2007.5 604.584 C 2014.7 601.421 2016.81 621.905 2009.81 620.087 C 2005.66 619.008 2010.2 609.608 2005.95 609 C 2001.91 608.422 2003.17 617.225 2003.14 619.751 C 1991.11 620.189 2003.39 608.881 1994.62 609.364 C 1990.94 609.567 1996.04 619.07 1990.49 620.111 C 1985.06 621.129 1987.57 605.782 1987.98 605.187 C 1990.88 603.964 1992.26 606.6 1998.25 604.677 z" fill="rgb(232,237,242)" transform="translate(0,0)"></path>
<path d="M 1447.16 1143.28 C 1457.96 1145.39 1450 1148.26 1453.67 1154.01 C 1453.56 1153.84 1462.58 1151.59 1463.23 1155.97 C 1463.37 1156.9 1464.69 1165.21 1463.65 1166.97 C 1463.58 1167.91 1458.12 1170.08 1458.53 1165.97 C 1458.31 1164.05 1458.61 1156.93 1455.05 1157.82 C 1449.58 1159.62 1457.24 1171.35 1447.43 1167.44 C 1446.55 1167.09 1447.04 1145.48 1447.16 1143.28 z" fill="rgb(232,237,242)" transform="translate(0,0)"></path>
<path d="M 517.665 1144.04 C 528.876 1143.8 521.191 1147.92 524.371 1153.94 C 524.962 1154.21 534.422 1150.73 534.856 1157.97 C 534.969 1159.88 535.562 1166.02 533.919 1167.72 C 524.931 1173.65 532.726 1150.53 524.354 1159.11 C 520.68 1162.87 529.719 1168.4 517.494 1168.21 C 518.287 1161.44 518.259 1150.87 517.665 1144.04 z" fill="rgb(232,237,242)" transform="translate(0,0)"></path>
<path d="M 1395.51 1144.29 C 1406.84 1143.26 1399.69 1147.36 1402.64 1153.95 C 1402.55 1153.73 1409.28 1152.22 1410.1 1153.7 C 1411.44 1154.22 1412.4 1156.45 1412.63 1157.57 C 1412.89 1158.88 1413.34 1166.84 1412.35 1167.43 C 1403.91 1172.48 1408.71 1158.78 1406.28 1157.69 C 1398.71 1154.29 1404.53 1166.98 1400.6 1168.11 C 1398.45 1168.51 1396.56 1168.16 1395.73 1168.11 C 1396.53 1161.54 1396.7 1150.82 1395.51 1144.29 z" fill="rgb(232,237,242)" transform="translate(0,0)"></path>
<path d="M 1335.39 1161.7 C 1332.5 1165.3 1331.51 1167.95 1326 1168.71 C 1317.93 1169.83 1312.16 1161.97 1317.86 1155.47 C 1320.53 1152.43 1324.9 1152.82 1328.91 1152.78 C 1333.33 1156.91 1332.38 1156.4 1335.39 1161.7 z" fill="rgb(232,237,242)" transform="translate(0,0)"></path>
<path d="M 1323.5 1157.61 C 1325.14 1156.96 1327 1157.69 1327.77 1159.28 C 1328.53 1160.87 1327.94 1162.78 1326.41 1163.66 C 1325.32 1164.29 1323.96 1164.25 1322.91 1163.57 C 1321.85 1162.88 1321.26 1161.66 1321.38 1160.41 C 1321.51 1159.16 1322.32 1158.08 1323.5 1157.61 z" fill="rgb(13,17,23)" transform="translate(0,0)"></path>
<path d="M 569.186 1143.28 C 580.521 1145.65 571.549 1149.86 575.423 1153.62 C 576.334 1154.51 587.92 1148.67 585.348 1165.03 C 584.399 1171.07 579.25 1168.96 580.779 1165.02 C 580.325 1162.55 580.28 1157.06 576.561 1157.5 C 573.027 1160.6 575.515 1165.6 574.202 1167.06 C 566.023 1176.18 569.027 1145.56 569.186 1143.28 z" fill="rgb(232,237,242)" transform="translate(0,0)"></path>
<path d="M 482.025 735.71 C 484.778 734.148 489.589 732.498 492.533 733.982 C 511.152 743.372 481.024 761.145 479.819 738.817 C 480.817 737.568 481.243 737.093 482.025 735.71 z" fill="rgb(232,237,242)" transform="translate(0,0)"></path>
<path d="M 487.371 738.556 C 488.413 737.928 489.713 737.913 490.77 738.517 C 491.826 739.121 492.472 740.249 492.459 741.466 C 492.445 742.682 491.775 743.796 490.706 744.377 C 489.103 745.248 487.099 744.679 486.192 743.097 C 485.286 741.514 485.809 739.497 487.371 738.556 z" fill="rgb(13,17,23)" transform="translate(0,0)"></path>
<path d="M 441.792 1153.03 C 453.947 1152.7 461.773 1159.78 450.667 1168.34 C 438.451 1169.13 431.826 1162.51 441.792 1153.03 z" fill="rgb(232,237,242)" transform="translate(0,0)"></path>
<path d="M 445.182 1157.53 C 446.775 1157.01 448.51 1157.74 449.256 1159.24 C 450.002 1160.74 449.533 1162.56 448.154 1163.52 C 447.067 1164.27 445.639 1164.32 444.503 1163.64 C 443.367 1162.96 442.732 1161.68 442.878 1160.37 C 443.024 1159.05 443.925 1157.94 445.182 1157.53 z" fill="rgb(13,17,23)" transform="translate(0,0)"></path>
<path d="M 2182.85 733.056 C 2194.68 733.983 2199.86 741.513 2189.57 749.155 C 2175.81 749.048 2171.22 740.845 2182.85 733.056 z" fill="rgb(232,237,242)" transform="translate(0,0)"></path>
<path d="M 2183.9 738.569 C 2185.41 737.592 2187.43 738.02 2188.41 739.526 C 2189.39 741.032 2188.97 743.05 2187.47 744.04 C 2185.96 745.037 2183.93 744.615 2182.94 743.099 C 2181.95 741.584 2182.38 739.552 2183.9 738.569 z" fill="rgb(13,17,23)" transform="translate(0,0)"></path>
<path d="M 1972.7 603.987 C 1984.96 605.457 1989.33 614.503 1978.84 619.47 L 1977.27 620.264 C 1973.13 619.885 1968.93 619.853 1966.74 615.6 C 1965.84 613.874 1965.67 611.86 1966.27 610.007 C 1967.27 606.905 1970.06 605.429 1972.7 603.987 z" fill="rgb(232,237,242)" transform="translate(0,0)"></path>
<path d="M 1974.27 608.499 C 1975.51 608.257 1976.78 608.702 1977.6 609.663 C 1978.42 610.625 1978.66 611.954 1978.23 613.14 C 1977.79 614.327 1976.75 615.187 1975.5 615.391 C 1973.62 615.7 1971.83 614.437 1971.49 612.554 C 1971.15 610.671 1972.39 608.865 1974.27 608.499 z" fill="rgb(13,17,23)" transform="translate(0,0)"></path>
<path d="M 452.389 604.084 C 455.318 602.994 458.609 603.599 460.959 605.66 C 463.309 607.72 464.339 610.904 463.642 613.951 C 462.945 616.997 460.632 619.416 457.62 620.249 C 453.231 621.463 448.665 619.004 447.263 614.672 C 445.861 610.339 448.121 605.671 452.389 604.084 z" fill="rgb(232,237,242)" transform="translate(0,0)"></path>
<path d="M 452.991 609.506 C 454.433 608.331 456.546 608.51 457.769 609.912 C 458.992 611.313 458.883 613.432 457.523 614.701 C 456.602 615.56 455.286 615.849 454.089 615.454 C 452.893 615.06 452.007 614.044 451.778 612.805 C 451.55 611.566 452.015 610.302 452.991 609.506 z" fill="rgb(13,17,23)" transform="translate(0,0)"></path>
<path d="M 1050.05 1165.43 C 1048.68 1166.47 1047.2 1167.72 1045.56 1168.3 C 1042.76 1169.28 1039.68 1169.07 1037.03 1167.73 C 1022.83 1160.57 1048.21 1141.06 1050.4 1161.78 C 1050.47 1163.71 1050.49 1163.57 1050.05 1165.43 z" fill="rgb(232,237,242)" transform="translate(0,0)"></path>
<path d="M 1050.05 1165.43 C 1044.95 1162.51 1040.94 1166.62 1039.17 1163.62 C 1037.65 1161.06 1048.54 1161.8 1050.4 1161.78 C 1050.47 1163.71 1050.49 1163.57 1050.05 1165.43 z" fill="rgb(27,39,64)" transform="translate(0,0)"></path>
<path d="M 1929.88 1164.06 C 1928.24 1168.04 1923.85 1170.13 1919.73 1168.89 C 1915.61 1167.65 1913.1 1163.49 1913.93 1159.27 C 1914.75 1155.04 1918.65 1152.14 1922.93 1152.54 C 1927.21 1152.95 1930.49 1156.53 1930.51 1160.83 C 1930.51 1161.23 1930.49 1161.62 1930.43 1162.01 C 1930.34 1162.72 1930.15 1163.4 1929.88 1164.06 z" fill="rgb(232,237,242)" transform="translate(0,0)"></path>
<path d="M 1919.62 1162.95 C 1924.61 1161.54 1925.07 1162.02 1930.43 1162.01 C 1930.34 1162.72 1930.15 1163.4 1929.88 1164.06 C 1924.81 1163.87 1921.84 1166.22 1919.62 1162.95 z" fill="rgb(27,39,64)" transform="translate(0,0)"></path>
<path d="M 1920.14 1158.92 C 1921.53 1157.01 1921.8 1156.06 1923.68 1157.91 C 1922.53 1158.96 1921.66 1158.78 1920.14 1158.92 z" fill="rgb(13,17,23)" transform="translate(0,0)"></path>
<path d="M 405.971 1145.84 C 409.629 1145.82 416.067 1145.14 419.29 1146.31 C 421.676 1147.17 419.639 1151.82 417.499 1150.85 C 414.306 1149.42 410.488 1152.8 413.077 1154.39 C 416.993 1156.8 418.724 1151.64 420.332 1159.49 C 419.131 1159.59 413.872 1159.86 413.477 1160.06 C 409.005 1162.36 416.546 1171.05 406.549 1168.07 C 405.486 1167.75 405.97 1149.83 405.971 1145.84 z" fill="rgb(232,237,242)" transform="translate(0,0)"></path>
<path d="M 2032.73 614.652 C 2031.9 622.834 2017.7 621.599 2016.35 614.035 C 2014.44 603.321 2031.37 599.556 2033.43 612.676 L 2032.73 614.652 z" fill="rgb(232,237,242)" transform="translate(0,0)"></path>
<path d="M 2032.73 614.652 C 2030.94 614.849 2024.8 616.666 2024.43 616.46 C 2016.11 611.929 2031.33 612.877 2033.43 612.676 L 2032.73 614.652 z" fill="rgb(27,39,64)" transform="translate(0,0)"></path>
<path d="M 2024.17 608.786 C 2024.84 608.548 2024.97 608.377 2025.5 608.53 C 2025.78 608.847 2025.63 608.628 2025.97 609.27 C 2024.9 609.604 2024.78 609.724 2024.17 608.786 z" fill="rgb(27,39,64)" transform="translate(0,0)"></path>
<path d="M 1019.22 1151.78 L 1022.16 1153.99 C 1022.31 1155.11 1022.31 1155.04 1022.83 1156.06 C 1018.91 1158.43 1020.57 1161.56 1019.61 1166.56 C 1019.14 1167.28 1018.71 1168.13 1017.97 1168.29 C 1015.86 1168.8 1014.36 1168.88 1012.72 1167.38 C 1012.33 1167.03 1009.62 1168.52 1009.02 1168.66 C 1007.74 1168.94 1006.15 1168.53 1005.1 1167.76 C 1003.4 1166.52 1002.67 1164.04 1002.68 1162.01 C 1002.8 1160.35 1002.08 1154.97 1003.42 1153.75 C 1003.86 1153.35 1005.58 1152.58 1006.23 1152.79 C 1010.77 1154.62 1006.55 1160.92 1009.78 1163.86 C 1010.82 1164.81 1012.2 1163.69 1012.89 1162.89 C 1015.05 1160.37 1012.63 1156.83 1014.03 1154.07 C 1014.67 1152.82 1016.41 1152.56 1017.61 1152.26 L 1019.22 1151.78 z" fill="rgb(232,237,242)" transform="translate(0,0)"></path>
<path d="M 1019.22 1151.78 L 1022.16 1153.99 C 1022.31 1155.11 1022.31 1155.04 1022.83 1156.06 C 1018.91 1158.43 1020.57 1161.56 1019.61 1166.56 C 1019.25 1161.34 1019.37 1156.94 1019.22 1151.78 z" fill="rgb(27,39,64)" transform="translate(0,0)"></path>
<path d="M 512.759 614.613 C 512.194 621.118 503.154 621.454 500.404 619.185 C 486.509 607.719 512.123 595.656 513.057 612.632 L 512.759 614.613 z" fill="rgb(232,237,242)" transform="translate(0,0)"></path>
<path d="M 512.759 614.613 C 511.674 614.74 504.093 616.48 504.307 616.608 C 496.734 612.085 510.936 612.88 513.057 612.632 L 512.759 614.613 z" fill="rgb(27,39,64)" transform="translate(0,0)"></path>
<path d="M 503.79 608.807 C 504.747 608.521 504.814 608.44 505.708 608.42 C 505.916 608.864 505.749 609.053 505.621 609.672 C 504.908 609.768 503.954 610.03 503.256 609.813 C 503.208 609.4 503.511 609.198 503.79 608.807 z" fill="rgb(13,17,23)" transform="translate(0,0)"></path>
<path d="M 1284.85 1145.89 C 1288.8 1145.88 1294.64 1145.48 1298.4 1146.25 C 1299.01 1146.37 1299.48 1148.97 1298.57 1149.71 C 1296.52 1151.37 1293.59 1149.67 1291.45 1151.3 C 1290.44 1152.06 1291.2 1153.5 1291.91 1154.19 C 1293.45 1155.6 1295.68 1153.87 1297.34 1155.01 C 1298.27 1155.65 1298.39 1156.85 1298.53 1157.87 L 1298.75 1159.29 C 1298.77 1159.29 1291.77 1159.48 1291.6 1160.15 C 1290.86 1163.01 1291.4 1171.89 1285.37 1167.58 C 1284.22 1166.76 1284.84 1149.62 1284.85 1145.89 z" fill="rgb(232,237,242)" transform="translate(0,0)"></path>
<path d="M 2137.78 738.193 C 2142.69 728.617 2151.11 733.632 2155.09 741.646 C 2151.75 743.704 2151.87 743.352 2147.89 743.551 C 2145.57 743.199 2144.47 742.977 2142.17 742.95 L 2143.17 744.006 C 2145.16 746.192 2145.95 745.877 2147.98 744.003 C 2160.62 743.961 2144.2 756.912 2136.61 742.698 L 2137.78 738.193 z" fill="rgb(232,237,242)" transform="translate(0,0)"></path>
<path d="M 2155.09 741.646 C 2151.75 743.704 2151.87 743.352 2147.89 743.551 C 2145.57 743.199 2144.47 742.977 2142.17 742.95 C 2147.29 741.491 2149.73 742.183 2155.09 741.646 z" fill="rgb(98,98,136)" transform="translate(0,0)"></path>
<path d="M 1375.38 1145.31 C 1379.04 1145.36 1388.46 1145.23 1392.39 1145.83 C 1392.95 1146.28 1393.38 1147.26 1393.59 1147.87 C 1394.74 1151.18 1388.48 1151.05 1388.31 1151.65 C 1387.28 1155.27 1387.77 1161.2 1387.72 1165.25 C 1387.64 1168.52 1386.23 1168.97 1383.41 1168.48 C 1379.3 1167.57 1383.13 1152.68 1381.08 1151.57 C 1376.8 1149.25 1376.15 1153.75 1375.38 1145.31 z" fill="rgb(232,237,242)" transform="translate(0,0)"></path>
<path d="M 285.211 744.251 C 289.478 743.901 289.892 746.324 287.06 747.923 C 276.316 753.982 265.899 741.32 276.976 734.172 C 280.98 731.588 291.289 735.088 289.341 741.551 C 288.982 742.739 281.076 742.453 278.401 742.896 C 279.643 747.148 282.084 745.735 285.211 744.251 z" fill="rgb(232,237,242)" transform="translate(0,0)"></path>
<path d="M 280.379 737.793 C 282.607 736.832 282.475 736.761 282.691 738.556 C 279.928 739.985 280.39 740.043 280.379 737.793 z" fill="rgb(13,17,23)" transform="translate(0,0)"></path>
<path d="M 452.72 744.282 C 458.473 744.289 455.485 747.816 452.516 748.84 C 440.032 753.057 434.456 736.269 447.476 733.511 C 454.165 732.094 464.044 743.681 450.269 742.199 L 449.08 742.237 C 444.682 742.315 445.405 747.193 452.72 744.282 z" fill="rgb(232,237,242)" transform="translate(0,0)"></path>
<path d="M 1969.24 739.641 L 1970.06 738.285 C 1971.68 735.458 1973.25 734.19 1976.41 733.545 C 1982.38 732.326 1994.16 741.446 1980.51 742.769 C 1971.87 742.227 1976.17 747.551 1981.33 744.19 C 1993.48 743.92 1975.68 755.866 1970.03 744.512 L 1969.25 743.002 C 1969.46 741.159 1969.58 741.246 1969.24 739.641 z" fill="rgb(232,237,242)" transform="translate(0,0)"></path>
<path d="M 1977.41 737.8 C 1978.9 737.429 1978.42 737.444 1979.62 737.537 C 1979.78 737.925 1979.71 737.659 1979.75 738.435 C 1978.96 738.68 1978.05 739.175 1977.23 739.067 C 1977.02 738.618 1977.23 738.403 1977.41 737.8 z" fill="rgb(27,39,64)" transform="translate(0,0)"></path>
<path d="M 516.162 1150.02 C 504.046 1152.6 513.367 1165.31 509.308 1167.63 C 499.943 1172.97 505.941 1154.38 503.426 1151.26 C 502.377 1149.96 498.592 1151.65 497.702 1149.62 C 497.144 1146.99 498.133 1145.46 500.993 1145.81 C 505.624 1146.41 511.427 1144.67 515.298 1146.84 L 516.162 1150.02 z" fill="rgb(232,237,242)" transform="translate(0,0)"></path>
<path d="M 527.227 604.75 C 535.594 602.837 533.569 618.94 532.655 619.272 C 523.439 622.622 531.078 613.878 524.476 607.602 L 523.917 608.484 C 520.299 614.062 525.051 619.327 519.408 620.284 C 514.544 621.108 516.47 604.991 517.471 604.885 C 521.637 604.444 522.138 605.851 527.227 604.75 z" fill="rgb(232,237,242)" transform="translate(0,0)"></path>
<path d="M 1337.13 1152.45 C 1337.15 1152.46 1344.14 1153.33 1343.23 1153.66 C 1346.74 1152.37 1352.42 1151.76 1353 1156.99 C 1353.38 1160.49 1355.15 1170.87 1348.55 1167.97 C 1346.03 1166.86 1349.93 1157.27 1345.56 1157.18 C 1337.42 1159.21 1349.82 1167.38 1336.98 1168.73 C 1337.09 1163.3 1337.04 1157.89 1337.13 1152.45 z" fill="rgb(232,237,242)" transform="translate(0,0)"></path>
<path d="M 458.96 1152.43 C 460.901 1152.82 464.552 1154.2 465.959 1153.77 C 476.122 1151.28 474.73 1156.49 475.133 1163.5 C 475.54 1170.6 468.504 1169.57 469.873 1165.11 C 469.416 1161.82 469.767 1159.01 467.528 1156.84 C 461.825 1158.36 467.767 1172.29 459.418 1167.51 C 458.546 1167.01 458.932 1154.61 458.96 1152.43 z" fill="rgb(232,237,242)" transform="translate(0,0)"></path>
<path d="M 1882.67 1152.53 C 1883.55 1152.72 1885.71 1153 1886.55 1153.33 C 1890.02 1154.88 1887.24 1160.17 1888.41 1162.88 C 1888.92 1164.03 1891.42 1164.43 1892.27 1163.65 C 1894.57 1161.57 1893.1 1157.72 1893.64 1155.05 C 1893.77 1154.44 1894.66 1153.08 1895.34 1152.96 C 1899.45 1152.22 1899.17 1155.91 1899.23 1157.75 C 1899.19 1159.86 1899.46 1165.27 1898.93 1167.02 C 1897.72 1170.97 1893.07 1166.52 1890.98 1167.79 C 1888.96 1169.02 1885.36 1168.92 1883.94 1166.99 C 1881.7 1163.94 1882.64 1156.35 1882.67 1152.53 z" fill="rgb(232,237,242)" transform="translate(0,0)"></path>
<path d="M 2035.63 606.87 C 2038.93 602.487 2039.93 606.926 2045.01 604.885 C 2046.47 604.303 2048.11 604.372 2049.51 605.077 C 2050.76 605.697 2052.21 607.444 2052.49 608.759 C 2053.02 611.194 2053.33 616.483 2052.5 618.684 C 2051.24 620.828 2047.13 620.396 2047.07 617.545 C 2047.03 615.406 2047.78 610.764 2045.85 609.583 C 2040.03 606.013 2042.94 617.849 2041.15 619.532 C 2040.68 619.982 2035.59 620.069 2035.55 620.072 C 2036.47 614.048 2036.43 612.92 2035.63 606.87 z" fill="rgb(232,237,242)" transform="translate(0,0)"></path>
<path d="M 466.037 739.088 C 465.894 741.431 466.678 747.116 464.899 748.668 C 464.323 749.17 460.368 749.23 460.284 748.018 C 459.782 740.762 459.543 732.547 460.316 725.349 C 460.391 724.652 465.77 724.073 466.374 723.976 C 467.355 729.206 465.605 731.156 468.749 735.117 C 468.068 736.376 468.407 736.697 468.886 738.065 L 466.037 739.088 z" fill="rgb(232,237,242)" transform="translate(0,0)"></path>
<path d="M 466.374 723.976 C 467.355 729.206 465.605 731.156 468.749 735.117 C 468.068 736.376 468.407 736.697 468.886 738.065 L 466.037 739.088 C 465.902 733.444 465.818 729.66 466.374 723.976 z" fill="rgb(27,39,64)" transform="translate(0,0)"></path>
<path d="M 992.352 1143.67 L 993.131 1143.75 C 993.593 1143.79 998.343 1143.88 998.423 1144.74 C 999.102 1152.01 998.904 1160.14 998.539 1167.45 C 998.492 1168.38 992.866 1169.43 993.06 1166.05 C 993.132 1164.78 992.995 1160.67 992.878 1159.32 L 990.381 1158.29 L 990.64 1156.07 C 992.671 1153.35 991.575 1148.76 992.352 1143.67 z" fill="rgb(232,237,242)" transform="translate(0,0)"></path>
<path d="M 990.64 1156.07 C 992.671 1153.35 991.575 1148.76 992.352 1143.67 C 993.06 1149.64 992.905 1153.29 992.878 1159.32 L 990.381 1158.29 L 990.64 1156.07 z" fill="rgb(27,39,64)" transform="translate(0,0)"></path>
<path d="M 1054.43 1161.33 C 1050.34 1152.61 1064.15 1148.63 1063.69 1156.85 L 1062.56 1160.06 C 1065.77 1161.64 1065.65 1162.72 1064.28 1166.14 C 1062.59 1170.38 1048.74 1169.23 1052.93 1164.43 C 1053.45 1163.4 1053.95 1162.37 1054.43 1161.33 z" fill="rgb(232,237,242)" transform="translate(0,0)"></path>
<path d="M 1054.43 1161.33 C 1062.58 1163.42 1060.15 1165.23 1052.93 1164.43 C 1053.45 1163.4 1053.95 1162.37 1054.43 1161.33 z" fill="rgb(27,39,64)" transform="translate(0,0)"></path>
<path d="M 1062.56 1160.06 C 1057.18 1157.39 1057.78 1155.26 1063.69 1156.85 L 1062.56 1160.06 z" fill="rgb(27,39,64)" transform="translate(0,0)"></path>
<path d="M 2162.37 723.85 C 2163.33 728 2161.97 733.948 2165.05 735.121 C 2165.06 735.718 2165.07 736.314 2165.08 736.91 C 2161.86 738.073 2163.42 745.495 2162.38 749.97 C 2161.79 749.803 2157.39 748.914 2157.31 747.94 C 2156.66 740.898 2156.63 732.66 2157.31 725.628 C 2157.36 725.053 2160.31 724.391 2160.72 724.29 L 2162.37 723.85 z" fill="rgb(232,237,242)" transform="translate(0,0)"></path>
<path d="M 2162.37 723.85 C 2163.33 728 2161.97 733.948 2165.05 735.121 C 2165.06 735.718 2165.07 736.314 2165.08 736.91 C 2161.86 738.073 2163.42 745.495 2162.38 749.97 C 2162.09 741.611 2162.23 732.25 2162.37 723.85 z" fill="rgb(98,98,136)" transform="translate(0,0)"></path>
<path d="M 1944.62 1160.02 C 1946.19 1163.27 1945.94 1162.83 1944.81 1166 C 1943.15 1170.63 1928.9 1169.28 1933.86 1164.4 C 1935.38 1162.91 1939.52 1166.71 1939.94 1163.47 C 1939.09 1161.44 1930.53 1160.98 1935.01 1154.97 C 1937 1152.31 1945.31 1151.43 1944.87 1155.48 L 1944.72 1156.78 C 1937.64 1155.34 1938.06 1157.81 1944.62 1160.02 z" fill="rgb(232,237,242)" transform="translate(0,0)"></path>
<path d="M 1873.36 1143.31 C 1874 1143.45 1878.2 1144.13 1878.32 1144.81 C 1879.43 1150.95 1878.94 1163.14 1878.76 1169.06 C 1877.63 1168.82 1873.78 1168.2 1873.61 1167.56 C 1872.71 1164.07 1873.2 1146.34 1873.36 1143.31 z" fill="rgb(232,237,242)" transform="translate(0,0)"></path>
<path d="M 468.749 735.117 L 469.331 733.564 C 472.629 722.438 475.496 732.703 480.305 735.786 C 478.851 736.908 477.605 737.803 476.076 738.842 C 475.966 742.513 477.518 749.818 472.373 749.352 C 468.153 746.433 471.85 743.324 468.886 738.065 C 468.407 736.697 468.068 736.376 468.749 735.117 z" fill="rgb(232,237,242)" transform="translate(0,0)"></path>
<path d="M 2165.05 735.121 C 2166.14 733.53 2166.59 732.908 2166.99 730.963 C 2167.23 730.343 2167.32 729.625 2168.03 729.409 C 2173.36 727.781 2172.1 731.664 2174.3 734.663 C 2175.64 736.501 2174.59 737.231 2173.38 738.384 C 2170.97 740.68 2174.88 748.375 2170.08 749.337 C 2169.5 749.452 2167.87 748.639 2167.38 748.242 C 2165.42 742.916 2168.83 742.205 2165.08 736.91 C 2165.07 736.314 2165.06 735.718 2165.05 735.121 z" fill="rgb(232,237,242)" transform="translate(0,0)"></path>
<path d="M 481.233 1148.95 C 485.739 1148.61 490.75 1156.5 485.549 1158.05 C 484.934 1158.24 485.161 1167.5 485.148 1168.93 C 485.102 1168.92 483.41 1168.5 483.358 1168.5 C 482.819 1168.47 481.481 1168.09 480.948 1167.99 C 478.39 1167.51 480.93 1161.04 478.842 1158.56 C 478.468 1158.11 477.772 1156.6 477.625 1156.03 C 477.339 1154.92 477.52 1154.26 478.269 1153.37 C 479.575 1151.83 480.232 1150.66 481.233 1148.95 z" fill="rgb(232,237,242)" transform="translate(0,0)"></path>
<path d="M 1359.48 1148.82 C 1364.29 1148.77 1368.29 1155.51 1363.9 1157.54 C 1362.95 1157.98 1363.32 1166.53 1363.31 1168.03 C 1353.2 1170.05 1360.41 1161.7 1357.32 1157.4 C 1354.64 1153.69 1356.96 1153.37 1358.95 1149.79 L 1359.48 1148.82 z" fill="rgb(232,237,242)" transform="translate(0,0)"></path>
<path d="M 1905.54 1148.94 C 1909.11 1148.28 1910.73 1151.16 1911.31 1154.43 C 1911.45 1155.25 1911.28 1156.09 1910.84 1156.79 C 1908.83 1159.99 1909.49 1164.21 1909.51 1168.3 C 1898.54 1168.77 1907.11 1162.48 1903.21 1157.44 C 1900.24 1153.61 1903.31 1153.2 1905.54 1148.94 z" fill="rgb(232,237,242)" transform="translate(0,0)"></path>
<path d="M 1022.16 1153.99 C 1022.8 1153.05 1023.93 1151.39 1023.89 1150.44 C 1023.82 1148.48 1027.44 1148.25 1027.97 1148.98 C 1029.74 1151.47 1033.99 1154.96 1030.35 1157.36 C 1027.85 1159.01 1031.66 1168.46 1027.04 1168.52 C 1026.34 1168.51 1024.73 1168.37 1024.58 1167.9 C 1023.01 1163.04 1024.96 1162.17 1022.83 1156.06 C 1022.31 1155.04 1022.31 1155.11 1022.16 1153.99 z" fill="rgb(232,237,242)" transform="translate(0,0)"></path>
<path d="M 2049.26 738.065 C 2034.92 741.697 2048.75 752.152 2037.22 747.934 C 2037.23 747.937 2034.21 729.782 2040.96 733.893 C 2044.13 735.829 2044.74 733.467 2048.79 733.363 C 2048.87 734.894 2049.08 736.527 2049.26 738.065 z" fill="rgb(232,237,242)" transform="translate(0,0)"></path>
<path d="M 1302.01 1152.48 C 1303.46 1152.69 1309.07 1153.93 1309.38 1153.74 C 1314.29 1150.8 1315.99 1156.89 1312.53 1158.18 C 1310.22 1159.03 1310.58 1157.78 1308.38 1160.28 C 1308.15 1162.45 1308.33 1165.59 1307.38 1167.43 C 1306.76 1168.64 1303.02 1168.33 1302.68 1167.35 C 1301.44 1163.73 1302.08 1156.46 1302.01 1152.48 z" fill="rgb(232,237,242)" transform="translate(0,0)"></path>
<path d="M 351.483 737.697 C 343.48 740.994 347.355 741.611 345.611 748.328 C 345.352 749.326 339.891 749.825 340.111 746.577 C 340.348 743.077 339.346 737.352 340.809 734.061 C 341.028 733.554 343.945 733.314 344.467 733.817 C 347.059 735.544 348.563 733.962 352.859 733.108 C 352.413 734.852 352.108 735.974 351.483 737.697 z" fill="rgb(232,237,242)" transform="translate(0,0)"></path>
<path d="M 2099.37 724.197 C 2099.48 724.249 2102.39 725.33 2102.12 726.088 C 2098.69 735.598 2094.5 745.426 2090.5 754.775 C 2090.36 754.707 2087.61 753.626 2087.79 752.954 C 2090.4 743.342 2095.47 733.382 2099.37 724.197 z" fill="rgb(232,237,242)" transform="translate(0,0)"></path>
<path d="M 402.82 724.298 C 402.877 724.323 405.307 725.239 405.177 725.645 C 402.469 734.136 398.16 746.688 394.14 754.582 C 393.126 754.274 391.682 754.042 391.042 753.262 C 390.768 751.136 401.345 727.68 402.82 724.298 z" fill="rgb(232,237,242)" transform="translate(0,0)"></path>
<path d="M 423.709 1152.93 C 425.735 1153.11 428.695 1153.6 430.817 1153.56 C 442.626 1153.36 429.713 1160.21 429.572 1160.37 C 429.302 1162.66 429.975 1167.74 427.023 1168.48 C 421.207 1169.96 423.623 1157.46 423.709 1152.93 z" fill="rgb(232,237,242)" transform="translate(0,0)"></path>
<path d="M 1989.56 733.135 C 1992.22 733.621 1993.23 733.671 1995.65 734.821 C 1996.83 735.378 1999.48 732.018 2001.59 735.026 C 2001.45 739.25 1997.7 737.395 1995.56 741.295 C 1995.35 743.015 1995.26 747.02 1994.31 748.285 C 1993.89 748.831 1993.26 749.167 1992.58 749.203 C 1987.43 749.447 1989.56 737.221 1989.56 733.135 z" fill="rgb(232,237,242)" transform="translate(0,0)"></path>
<path d="M 292.837 733.022 C 295.877 733.755 296.783 733.133 298.488 735.499 C 300.124 735.384 301.128 733.003 303.027 733.847 C 304.371 733.981 304.447 737.333 303.747 737.99 C 302.626 739.041 300.11 739.292 298.242 740.275 C 298.197 742.282 298.557 746.925 297.471 748.414 C 297.012 749.037 296.269 749.386 295.496 749.341 C 290.713 749.104 292.817 736.956 292.837 733.022 z" fill="rgb(232,237,242)" transform="translate(0,0)"></path>
<path d="M 671.363 1186.08 C 675.99 1187.29 671.931 1205.54 677.23 1201.27 C 677.832 1205.59 678.072 1208.93 678.46 1213.23 C 678.304 1214.05 678.253 1215.59 677.527 1216.23 C 676.673 1215.59 677.483 1214.19 676.73 1213.5 L 676.562 1213.5 C 676.699 1213.06 676.172 1225.18 675.915 1227.29 C 674.844 1220.92 671.122 1191.66 671.363 1186.08 z" fill="rgb(94,89,130)" transform="translate(0,0)"></path>
<path d="M 2198.11 733.549 C 2207.54 734.569 2203.91 738.554 2203.99 749.229 C 2194.59 748.262 2198.15 744.16 2198.11 733.549 z" fill="rgb(232,237,242)" transform="translate(0,0)"></path>
<path d="M 501.605 732.933 C 502.328 733.128 506.647 734.034 506.762 734.369 C 508.002 737.98 507.34 746.418 507.062 750.024 C 498.135 747.471 501.541 743.133 501.605 732.933 z" fill="rgb(232,237,242)" transform="translate(0,0)"></path>
<path d="M 538.755 1152.77 C 540.837 1152.94 542.92 1153.08 545.005 1153.2 C 544.397 1156.35 544.742 1165.14 543.795 1167.76 C 543.563 1168.4 539.014 1168.99 538.801 1166.53 C 538.479 1162.82 538.648 1156.67 538.755 1152.77 z" fill="rgb(232,237,242)" transform="translate(0,0)"></path>
<path d="M 1416.55 1152.32 C 1417.23 1152.47 1421.5 1153.21 1421.6 1153.65 C 1422.57 1157.92 1422.06 1165 1421.88 1169.35 C 1413.03 1166.86 1416.23 1162.38 1416.55 1152.32 z" fill="rgb(232,237,242)" transform="translate(0,0)"></path>
<path d="M 542.014 1150.3 C 540.485 1150.59 538.976 1149.71 538.476 1148.23 C 537.976 1146.76 538.638 1145.14 540.028 1144.44 C 541.418 1143.74 543.112 1144.17 544 1145.45 C 544.888 1146.73 544.7 1148.46 543.558 1149.52 C 543.127 1149.92 542.592 1150.19 542.014 1150.3 z" fill="rgb(232,237,242)" transform="translate(0,0)"></path>
<path d="M 502.84 725.489 C 503.845 724.968 505.055 725.04 505.992 725.676 C 506.929 726.311 507.443 727.409 507.33 728.536 C 507.218 729.663 506.497 730.637 505.453 731.075 C 503.926 731.716 502.165 731.037 501.463 729.537 C 500.762 728.037 501.369 726.25 502.84 725.489 z" fill="rgb(232,237,242)" transform="translate(0,0)"></path>
<path d="M 1418.21 1144.39 C 1419.59 1143.83 1421.17 1144.34 1421.96 1145.61 C 1422.76 1146.87 1422.53 1148.51 1421.43 1149.52 C 1420.52 1150.34 1419.2 1150.55 1418.09 1150.04 C 1416.97 1149.53 1416.26 1148.4 1416.29 1147.18 C 1416.31 1145.95 1417.07 1144.85 1418.21 1144.39 z" fill="rgb(232,237,242)" transform="translate(0,0)"></path>
<path d="M 2199.98 725.375 C 2201.49 724.805 2203.19 725.509 2203.85 726.981 C 2204.51 728.453 2203.91 730.185 2202.48 730.936 C 2201.48 731.464 2200.26 731.39 2199.33 730.745 C 2198.39 730.099 2197.89 728.988 2198.03 727.861 C 2198.17 726.733 2198.92 725.776 2199.98 725.375 z" fill="rgb(232,237,242)" transform="translate(0,0)"></path>
<metadata><recraft-signature>{"signed_by": "recraft", "signature_b64": "fRJ+Td7VTlE09lUKrpsREL6meZd5JZgIZzLB4x2RfVPg34kJZ42YGUAAozcJD68W/Jlz9FOmtyV2Jj+Y2RzKCw==", "signing_algo": "Ed25519", "generation_timestamp": 1781843156, "identifier": "9d197ae6-eca8-4c9d-8d68-6e33ad52d4eb"}</recraft-signature></metadata></svg>